<?xml version="1.0" standalone="no"?>
<!DOCTYPE svg PUBLIC "-//W3C//DTD SVG 20010904//EN"
 "http://www.w3.org/TR/2001/REC-SVG-20010904/DTD/svg10.dtd">
<svg version="1.0" xmlns="http://www.w3.org/2000/svg"
 width="980.000000pt" height="980.000000pt" viewBox="0 0 980.000000 980.000000"
 preserveAspectRatio="xMidYMid meet">
<metadata>
Created by potrace 1.14, written by Peter Selinger 2001-2017
</metadata>
<g transform="translate(0.000000,980.000000) scale(0.100000,-0.100000)"
fill="#000000" stroke="none">
<path d="M3025 9310 c-460 -7 -544 -15 -800 -74 -408 -93 -773 -270 -1075
-521 -103 -86 -302 -292 -381 -395 -381 -492 -632 -1144 -724 -1875 -41 -329
-55 -714 -36 -1020 52 -857 256 -1545 625 -2105 108 -164 184 -258 331 -409
211 -218 420 -370 690 -502 238 -116 445 -182 720 -229 166 -29 185 -38 185
-89 0 -44 -48 -218 -86 -312 -208 -511 -638 -915 -1294 -1215 -127 -58 -198
-96 -150 -80 8 2 114 10 235 16 537 27 848 70 1230 170 303 79 566 177 832
310 359 178 566 331 869 641 140 143 226 246 319 382 l80 116 390 1 c745 1
2071 19 2205 30 245 18 415 53 653 131 878 290 1523 1057 1802 2144 100 388
141 705 151 1145 15 646 -60 1208 -231 1725 -168 510 -397 902 -720 1234 -219
224 -422 374 -680 502 -159 78 -252 114 -443 170 -240 70 -350 88 -590 99
-274 11 -3531 20 -4107 10z m142 -1973 c27 -26 31 -121 32 -634 1 -255 3 -463
5 -463 2 0 42 17 88 39 181 84 336 109 563 91 352 -28 523 -131 666 -401 l44
-84 0 -712 c0 -642 -2 -714 -16 -728 -38 -39 -504 -44 -541 -7 -19 19 -26 207
-27 667 -1 417 -10 616 -31 687 -14 49 -55 97 -98 115 -19 8 -71 17 -116 20
-154 10 -297 -39 -453 -155 l-81 -61 -4 -618 c-3 -665 -3 -655 -56 -670 -42
-12 -453 -8 -484 5 -24 10 -27 16 -35 99 -11 117 -8 2659 3 2748 l9 70 50 6
c28 4 143 6 257 5 183 -1 209 -3 225 -19z m2631 14 c29 -4 57 -12 63 -18 31
-31 28 -568 -4 -600 -32 -32 -568 -36 -600 -4 -18 18 -26 108 -26 301 -1 162
9 293 23 307 19 20 430 30 544 14z m1314 -5 c9 -4 19 -17 23 -29 12 -33 18
-1589 7 -1750 -5 -84 -13 -142 -21 -150 -9 -9 -76 -12 -256 -12 -301 0 -283
-9 -296 151 -10 142 -11 1506 0 1648 10 118 16 132 72 147 40 10 446 6 471 -5z
m-1280 -1002 c15 -3 29 -15 32 -27 26 -88 23 -1817 -3 -1865 -8 -14 -26 -23
-59 -29 -63 -11 -479 -8 -517 4 -24 8 -31 17 -38 49 -5 21 -11 363 -13 759 -6
712 3 1076 24 1097 6 6 42 15 79 19 74 8 451 3 495 -7z m1315 -1290 c31 -9 34
-22 43 -176 11 -177 -2 -414 -23 -435 -23 -23 -188 -36 -377 -29 -194 8 -217
12 -232 40 -14 25 -24 380 -13 490 3 41 12 82 19 92 9 12 35 20 82 25 76 8
466 3 501 -7z"/>
</g>
</svg>
